<svg width="145" height="27" viewBox="0 0 145 27" fill="none" xmlns="http://www.w3.org/2000/svg">
<path d="M32.392 23.28C31.1973 23.28 30.1333 23.028 29.2 22.524C28.2853 22.02 27.5667 21.32 27.044 20.424C26.5213 19.528 26.26 18.492 26.26 17.316V9.476H29.956V17.232C29.956 17.792 30.0493 18.2773 30.236 18.688C30.4227 19.08 30.7027 19.3787 31.076 19.584C31.4493 19.7893 31.888 19.892 32.392 19.892C33.1573 19.892 33.7547 19.6587 34.184 19.192C34.6133 18.7253 34.828 18.072 34.828 17.232V9.476H38.496V17.316C38.496 18.5107 38.2347 19.556 37.712 20.452C37.208 21.348 36.4893 22.048 35.556 22.552C34.6413 23.0373 33.5867 23.28 32.392 23.28ZM41.417 23V9.476H45.113V23H41.417ZM43.265 7.292C42.6676 7.292 42.173 7.096 41.781 6.704C41.389 6.29333 41.193 5.78933 41.193 5.192C41.193 4.61333 41.389 4.11867 41.781 3.708C42.173 3.29733 42.6676 3.092 43.265 3.092C43.881 3.092 44.3756 3.29733 44.749 3.708C45.141 4.11867 45.337 4.61333 45.337 5.192C45.337 5.78933 45.141 6.29333 44.749 6.704C44.3756 7.096 43.881 7.292 43.265 7.292ZM54.7463 23.28C53.3649 23.28 52.1236 22.972 51.0223 22.356C49.9209 21.74 49.0529 20.9 48.4183 19.836C47.7836 18.772 47.4663 17.5773 47.4663 16.252C47.4663 14.908 47.7836 13.704 48.4183 12.64C49.0529 11.576 49.9209 10.736 51.0223 10.12C52.1423 9.48533 53.3836 9.168 54.7463 9.168C55.8103 9.168 56.7903 9.364 57.6863 9.756C58.5823 10.148 59.3569 10.708 60.0103 11.436L57.6583 13.816C57.3036 13.424 56.8743 13.1253 56.3703 12.92C55.8849 12.7147 55.3436 12.612 54.7463 12.612C54.0743 12.612 53.4676 12.7707 52.9263 13.088C52.4036 13.3867 51.9836 13.8067 51.6663 14.348C51.3676 14.8707 51.2183 15.496 51.2183 16.224C51.2183 16.9333 51.3676 17.568 51.6663 18.128C51.9836 18.6693 52.4036 19.0987 52.9263 19.416C53.4676 19.7147 54.0743 19.864 54.7463 19.864C55.3623 19.864 55.9129 19.7613 56.3983 19.556C56.9023 19.332 57.3316 19.0147 57.6863 18.604L60.0663 20.984C59.3756 21.7307 58.5823 22.3 57.6863 22.692C56.7903 23.084 55.8103 23.28 54.7463 23.28ZM70.7675 23L65.5315 16.028L70.7395 9.476H74.9675L68.8635 16.868L69.0035 15.076L75.2475 23H70.7675ZM62.1435 23V2.756H65.8115V23H62.1435ZM83.0405 23.28C81.4538 23.28 80.0912 23.0093 78.9525 22.468C77.8325 21.9267 76.8152 21.1147 75.9005 20.032L78.4205 17.512C78.9992 18.2773 79.6712 18.8747 80.4365 19.304C81.2018 19.7147 82.1352 19.92 83.2365 19.92C84.2258 19.92 85.0098 19.724 85.5885 19.332C86.1858 18.94 86.4845 18.3987 86.4845 17.708C86.4845 17.1107 86.3165 16.6253 85.9805 16.252C85.6445 15.8787 85.1965 15.5613 84.6365 15.3C84.0952 15.0387 83.4885 14.8053 82.8165 14.6C82.1632 14.376 81.5005 14.124 80.8285 13.844C80.1752 13.564 79.5685 13.2187 79.0085 12.808C78.4672 12.3787 78.0285 11.8373 77.6925 11.184C77.3565 10.512 77.1885 9.672 77.1885 8.664C77.1885 7.46933 77.4778 6.452 78.0565 5.612C78.6352 4.772 79.4285 4.128 80.4365 3.68C81.4445 3.232 82.5832 3.008 83.8525 3.008C85.1965 3.008 86.4098 3.26 87.4925 3.764C88.5752 4.268 89.4618 4.92133 90.1525 5.724L87.6325 8.244C87.0538 7.60933 86.4565 7.14267 85.8405 6.844C85.2432 6.54533 84.5618 6.396 83.7965 6.396C82.9192 6.396 82.2285 6.564 81.7245 6.9C81.2205 7.236 80.9685 7.72133 80.9685 8.356C80.9685 8.89733 81.1365 9.336 81.4725 9.672C81.8085 10.008 82.2472 10.2973 82.7885 10.54C83.3485 10.7827 83.9552 11.016 84.6085 11.24C85.2805 11.464 85.9432 11.716 86.5965 11.996C87.2685 12.276 87.8752 12.64 88.4165 13.088C88.9765 13.536 89.4245 14.1147 89.7605 14.824C90.0965 15.5147 90.2645 16.3733 90.2645 17.4C90.2645 19.2293 89.6205 20.6667 88.3325 21.712C87.0445 22.7573 85.2805 23.28 83.0405 23.28ZM101.978 23V15.244C101.978 14.4413 101.726 13.788 101.222 13.284C100.718 12.78 100.065 12.528 99.2619 12.528C98.7392 12.528 98.2726 12.64 97.8619 12.864C97.4512 13.088 97.1246 13.4053 96.8819 13.816C96.6579 14.2267 96.5459 14.7027 96.5459 15.244L95.1179 14.516C95.1179 13.452 95.3419 12.528 95.7899 11.744C96.2379 10.9413 96.8539 10.316 97.6379 9.868C98.4406 9.42 99.3552 9.196 100.382 9.196C101.409 9.196 102.314 9.42 103.098 9.868C103.901 10.316 104.526 10.932 104.974 11.716C105.422 12.5 105.646 13.4053 105.646 14.432V23H101.978ZM92.8779 23V2.756H96.5459V23H92.8779ZM114.957 23.28C113.594 23.28 112.362 22.972 111.261 22.356C110.178 21.7213 109.31 20.872 108.657 19.808C108.022 18.7253 107.705 17.5213 107.705 16.196C107.705 14.8707 108.022 13.6853 108.657 12.64C109.291 11.576 110.159 10.736 111.261 10.12C112.362 9.48533 113.585 9.168 114.929 9.168C116.31 9.168 117.542 9.48533 118.625 10.12C119.726 10.736 120.594 11.576 121.229 12.64C121.863 13.6853 122.181 14.8707 122.181 16.196C122.181 17.5213 121.863 18.7253 121.229 19.808C120.594 20.872 119.726 21.7213 118.625 22.356C117.542 22.972 116.319 23.28 114.957 23.28ZM114.929 19.864C115.619 19.864 116.226 19.7147 116.749 19.416C117.29 19.0987 117.701 18.6693 117.981 18.128C118.279 17.568 118.429 16.9333 118.429 16.224C118.429 15.5147 118.279 14.8893 117.981 14.348C117.682 13.8067 117.271 13.3867 116.749 13.088C116.226 12.7707 115.619 12.612 114.929 12.612C114.257 12.612 113.659 12.7707 113.137 13.088C112.614 13.3867 112.203 13.8067 111.905 14.348C111.606 14.8893 111.457 15.5147 111.457 16.224C111.457 16.9333 111.606 17.568 111.905 18.128C112.203 18.6693 112.614 19.0987 113.137 19.416C113.659 19.7147 114.257 19.864 114.929 19.864ZM127.853 23L122.785 9.476H126.481L129.785 19.304L128.665 19.332L132.053 9.476H134.713L138.101 19.332L136.981 19.304L140.285 9.476H143.981L138.941 23H136.281L132.865 13.648H133.901L130.485 23H127.853Z" fill="white"/>
<mask id="mask0_4_229" style="mask-type:luminance" maskUnits="userSpaceOnUse" x="0" y="2" width="25" height="25">
<path d="M24.2953 2H0V26.333H24.2953V2Z" fill="white"/>
</mask>
<g mask="url(#mask0_4_229)">
<path d="M13.7079 3.14277C13.7322 3.14634 13.7565 3.14992 13.7816 3.15362C13.9053 3.17245 14.0278 3.19505 14.1502 3.22125C14.1975 3.23135 14.2449 3.24112 14.2922 3.2507C16.0468 3.60539 17.7173 4.39312 19.0947 5.53873C19.1299 5.56777 19.1655 5.59628 19.2011 5.62468C19.4906 5.85542 19.7519 6.11873 20.0137 6.37995C20.034 6.4002 20.0542 6.42045 20.0753 6.44132C20.1898 6.55642 20.2997 6.67389 20.4048 6.79778C20.4207 6.81626 20.4207 6.81626 20.4369 6.83512C20.9562 7.43809 21.4088 8.08843 21.7903 8.78727C21.8024 8.80941 21.8146 8.83168 21.8271 8.85455C22.1053 9.367 22.3413 9.90063 22.5293 10.4529C22.5372 10.476 22.5452 10.4992 22.5535 10.5232C22.6964 10.9412 22.8069 11.3624 22.8987 11.7945C22.9035 11.8164 22.9082 11.8381 22.9131 11.8607C22.9934 12.2356 23.04 12.6167 23.0835 12.9975C23.0856 13.0139 23.0876 13.0305 23.0897 13.0475C23.109 13.2175 23.1107 13.3867 23.1113 13.5576C23.1114 13.5895 23.1116 13.6213 23.1118 13.653C23.1122 13.7545 23.1123 13.856 23.1124 13.9574C23.1124 13.9747 23.1124 13.9919 23.1124 14.0096C23.1129 14.6209 23.102 15.2221 22.9849 15.8243C22.9705 15.899 22.9579 15.9737 22.9462 16.0488C22.9192 16.2146 22.882 16.3778 22.8446 16.5415C22.8324 16.5945 22.8205 16.6477 22.8086 16.7009C22.7643 16.8972 22.7119 17.087 22.6447 17.2771C22.6291 17.3266 22.6136 17.3762 22.5986 17.426C22.5909 17.4509 22.5833 17.4757 22.5755 17.5014C22.5598 17.553 22.5445 17.6046 22.5293 17.6563C22.4907 17.7862 22.4498 17.9108 22.3919 18.0335C22.368 18.0859 22.3468 18.1387 22.3259 18.1923C22.0318 18.9335 21.6427 19.6157 21.213 20.2844C21.1319 20.2496 21.0796 20.2027 21.0174 20.1403C20.9969 20.1198 20.9764 20.0993 20.9552 20.0782C20.9328 20.0554 20.9102 20.0326 20.8876 20.0099C20.8636 19.9859 20.8398 19.962 20.8159 19.938C20.751 19.8731 20.6863 19.8081 20.6217 19.743C20.554 19.6748 20.4862 19.6069 20.4186 19.5391C20.2903 19.4105 20.1621 19.2817 20.0341 19.1529C19.8882 19.0063 19.7423 18.8598 19.5963 18.7134C19.296 18.4121 18.9959 18.1107 18.6959 17.8091C18.7259 17.7328 18.758 17.6598 18.7957 17.5871C18.9408 17.3042 19.0691 17.0195 19.1808 16.7219C19.1865 16.7069 19.1921 16.692 19.198 16.6765C19.2094 16.6465 19.2206 16.6163 19.2317 16.5862C19.245 16.5507 19.2584 16.5154 19.2721 16.4802C19.3373 16.3079 19.3831 16.1332 19.4262 15.9541C19.4331 15.926 19.4401 15.8977 19.4471 15.8687C19.4605 15.8142 19.4737 15.7597 19.4868 15.7051C19.5001 15.6512 19.5143 15.5981 19.5291 15.5447C19.5625 15.4112 19.5755 15.2735 19.592 15.1371C19.5979 15.0887 19.6039 15.0402 19.6101 14.9918C19.7408 13.942 19.6997 12.7674 19.3136 11.7707C19.2892 11.7061 19.2682 11.6406 19.2469 11.575C19.1868 11.3897 19.1226 11.2086 19.0423 11.0311C19.0346 11.014 19.0268 10.9968 19.0189 10.9792C18.6466 10.16 18.1422 9.39219 17.4951 8.76403C17.4385 8.70782 17.3824 8.65125 17.3267 8.59382C17.1906 8.45415 17.0475 8.32993 16.8948 8.20888C16.8713 8.18965 16.8479 8.17055 16.8238 8.15072C16.1681 7.61622 15.4198 7.22164 14.6267 6.93665C14.5833 6.921 14.5399 6.9051 14.4968 6.88898C14.366 6.8403 14.2356 6.79769 14.1005 6.76308C14.0818 6.75826 14.0631 6.75343 14.0438 6.74846C13.7547 6.67495 13.4652 6.61476 13.1696 6.57368C13.1498 6.57092 13.13 6.56816 13.1095 6.56531C12.7643 6.52001 12.4203 6.51464 12.0727 6.51441C12.0486 6.51438 12.0245 6.51436 11.9996 6.51434C11.6405 6.51457 11.2911 6.52561 10.9368 6.58959C10.9173 6.59293 10.8979 6.59628 10.8778 6.59972C9.47715 6.84404 8.13681 7.46091 7.09054 8.43432C7.04232 8.47897 6.99326 8.52192 6.94323 8.56462C6.75194 8.7313 6.57247 8.91563 6.41066 9.11114C6.40029 9.12343 6.38991 9.13584 6.37922 9.14862C5.96376 9.64574 5.59624 10.1881 5.32338 10.7777C5.30119 10.8252 5.278 10.872 5.25476 10.919C5.13154 11.1741 5.03834 11.438 4.9486 11.7064C4.94272 11.7238 4.93684 11.7412 4.93078 11.7592C4.8316 12.0549 4.73208 12.3609 4.70659 12.6734C4.70125 12.7252 4.69113 12.7745 4.68015 12.8253C4.64601 12.9891 4.62788 13.1553 4.60944 13.3214C4.60749 13.3385 4.60554 13.3558 4.60353 13.3736C4.58935 13.5061 4.5821 13.6371 4.58085 13.7702C4.58061 13.7904 4.58038 13.8105 4.58015 13.8313C4.56456 15.5866 5.05595 17.2975 6.15664 18.6881C6.17519 18.7116 6.19373 18.7352 6.21284 18.7594C6.31251 18.8833 6.41658 19.0025 6.5236 19.1202C6.56669 19.1677 6.60858 19.2162 6.65025 19.2651C6.81015 19.4487 6.98601 19.6194 7.17271 19.7754C7.19161 19.7913 7.21052 19.8071 7.23 19.8234C7.29515 19.8774 7.36082 19.9306 7.42673 19.9836C7.44876 20.0015 7.47079 20.0194 7.49348 20.0378C8.08988 20.5103 8.78158 20.909 9.50488 21.147C9.55471 21.1646 9.60269 21.1853 9.65128 21.2061C9.8135 21.2719 9.98264 21.3138 10.1517 21.3579C10.2087 21.3729 10.2656 21.3881 10.3225 21.4035C10.5715 21.4695 10.8204 21.5199 11.0754 21.5566C11.0908 21.5589 11.1062 21.5612 11.1221 21.5636C11.4681 21.6127 11.8095 21.6139 12.1607 21.6261C12.1607 19.1374 12.1607 16.6488 12.1607 14.0847C12.3425 14.2408 12.3425 14.2408 12.4118 14.3101C12.4276 14.326 12.4435 14.3418 12.4598 14.3581C12.4852 14.3836 12.4852 14.3836 12.511 14.4095C12.5295 14.428 12.548 14.4464 12.5669 14.4654C12.6287 14.5273 12.6903 14.5891 12.752 14.651C12.7967 14.6958 12.8416 14.7406 12.8863 14.7854C12.9834 14.8827 13.0806 14.98 13.1778 15.0774C13.3224 15.2223 13.4669 15.367 13.6115 15.5117C13.8696 15.7702 14.1278 16.0288 14.3858 16.2874C14.6116 16.5136 14.8373 16.7398 15.0631 16.966C15.0856 16.9885 15.0856 16.9885 15.1084 17.0113C15.1693 17.0723 15.23 17.1331 15.2908 17.194C15.8609 17.7649 16.4308 18.336 17.0008 18.9071C17.5075 19.4148 18.0143 19.9225 18.5212 20.4301C19.0904 21.0003 19.6596 21.5704 20.2287 22.1406C20.2893 22.2013 20.3499 22.262 20.4105 22.3228C20.4255 22.3377 20.4404 22.3527 20.4558 22.3681C20.6815 22.5943 20.9074 22.8205 21.1332 23.0465C21.3898 23.3035 21.6462 23.5604 21.9026 23.8175C22.0463 23.9615 22.19 24.1054 22.3338 24.2493C22.4296 24.3453 22.5254 24.4413 22.6212 24.5373C22.6758 24.5922 22.7305 24.6469 22.7853 24.7017C22.8441 24.7604 22.9028 24.8193 22.9614 24.8782C22.9787 24.8955 22.9959 24.9128 23.0138 24.9305C23.0292 24.9461 23.0446 24.9617 23.0605 24.9776C23.0807 24.9978 23.0807 24.9978 23.1014 25.0185C23.1297 25.0498 23.1297 25.0498 23.1297 25.0729C22.3782 25.1546 21.6263 25.2085 20.8709 25.2392C20.8432 25.2403 20.8155 25.2415 20.787 25.2427C19.4456 25.297 18.254 25.2995 17.2224 24.3496C17.0199 24.159 16.8339 23.9545 16.6522 23.7442C16.6316 23.7204 16.6316 23.7204 16.6105 23.6961C16.2685 23.3007 15.951 22.8903 15.6582 22.4569C15.6278 22.4099 15.6276 22.4099 15.5784 22.3894C15.5784 23.0918 15.5784 23.794 15.5784 24.5177C15.3204 24.6038 15.0688 24.6857 14.8062 24.7519C14.7751 24.7598 14.744 24.7679 14.7128 24.7758C14.2577 24.8911 13.8043 24.9699 13.3384 25.0266C13.3103 25.0304 13.2823 25.0342 13.2533 25.0381C12.1739 25.1726 11.0266 25.0996 9.96375 24.8784C9.90117 24.8654 9.8385 24.853 9.77577 24.8409C9.55428 24.7971 9.33887 24.7412 9.12336 24.674C9.05941 24.6543 8.99522 24.6356 8.931 24.6169C7.78006 24.2775 6.65734 23.7349 5.69479 23.0141C5.66391 22.9912 5.63303 22.9684 5.60215 22.9456C5.35002 22.7584 5.10746 22.5641 4.87645 22.3511C4.8252 22.3041 4.77324 22.2584 4.72057 22.213C4.64115 22.144 4.56756 22.0704 4.49388 21.9953C4.44975 21.9519 4.40413 21.9118 4.35685 21.8719C4.26804 21.7951 4.19129 21.7109 4.11394 21.6227C4.07131 21.5748 4.02831 21.5278 3.98422 21.4812C3.8352 21.3238 3.69564 21.1628 3.56395 20.9905C3.52255 20.9364 3.48021 20.8833 3.43658 20.831C2.88974 20.1717 2.42845 19.3847 2.09235 18.5957C2.08265 18.5729 2.07295 18.5503 2.06296 18.5269C2.03026 18.4502 1.99778 18.3733 1.96533 18.2964C1.95441 18.2706 1.94349 18.2448 1.93223 18.2181C1.73796 17.758 1.58923 17.2992 1.46884 16.8144C1.463 16.7912 1.45717 16.7681 1.45116 16.7443C1.23483 15.8862 1.11715 15.0276 1.11812 14.1425C1.11813 14.1209 1.11814 14.0993 1.11814 14.0771C1.11886 13.5342 1.13826 12.9927 1.22789 12.4562C1.2389 12.39 1.24929 12.3238 1.25966 12.2576C1.34986 11.6893 1.48829 11.1427 1.67091 10.5974C1.67692 10.5794 1.68293 10.5614 1.68913 10.5428C1.78865 10.2453 1.89687 9.95355 2.02307 9.6663C2.03191 9.64574 2.04077 9.62518 2.04989 9.60413C2.19213 9.27503 2.35389 8.95979 2.5311 8.64845C2.54322 8.62704 2.55534 8.60575 2.56784 8.58372C2.7417 8.27895 2.92784 7.98553 3.13151 7.69997C3.15157 7.67182 3.15157 7.67182 3.17204 7.6431C3.32411 7.43086 3.48001 7.22392 3.65118 7.02677C3.70495 6.96422 3.75601 6.90021 3.80697 6.83537C3.90904 6.70927 4.02236 6.59609 4.13827 6.48292C4.22055 6.40236 4.29711 6.31967 4.37112 6.23144C4.408 6.18896 4.44779 6.15264 4.49109 6.11681C4.55549 6.06203 4.61561 6.00554 4.67438 5.94475C4.7646 5.85295 4.86219 5.77293 4.9624 5.69237C5.01864 5.64641 5.07253 5.59901 5.12613 5.55004C5.64592 5.08363 6.26246 4.70305 6.87252 4.36881C6.89469 4.35664 6.91685 4.34448 6.93969 4.33195C7.39493 4.08404 7.86988 3.84999 8.36721 3.6994C8.43049 3.67882 8.49065 3.65578 8.55214 3.63055C9.17641 3.37721 9.85781 3.24572 10.5211 3.14277C10.5452 3.13899 10.5452 3.13899 10.5698 3.13514C11.5917 2.9773 12.6866 2.98764 13.7079 3.14277Z" fill="#F84565"/>
<path d="M15.9578 15.749C15.9662 15.7657 15.9745 15.7825 15.9832 15.7996C15.9623 15.8206 15.9414 15.8415 15.9199 15.863C15.9324 15.8254 15.9449 15.7877 15.9578 15.749Z" fill="#F84565"/>
<path d="M7.01146 10.9863C7.02412 11.0244 7.02412 11.0244 7.0083 11.0569C6.98616 11.0878 6.98616 11.0878 6.9482 11.1131C6.96509 11.0676 6.98566 11.0275 7.01146 10.9863Z" fill="#F84565"/>
</g>
</svg>
